<svg xmlns="http://www.w3.org/2000/svg" width="512" height="437.849" viewBox="0 0 512 437.849">
  <path id="Subtraction_2" data-name="Subtraction 2" d="M256-1946.151a40.512,40.512,0,0,1-14.9-2.825,40.32,40.32,0,0,1-12.8-8.075L47.6-2125.75a149.4,149.4,0,0,1-20.263-23.213A149.781,149.781,0,0,1,12.4-2175.551a150.106,150.106,0,0,1-9.238-29.063A150.229,150.229,0,0,1,0-2235.251v-5.8a142.457,142.457,0,0,1,8.967-49.9,142.622,142.622,0,0,1,24.9-42.5A142.618,142.618,0,0,1,71.677-2365a142.393,142.393,0,0,1,47.724-17.053A143.558,143.558,0,0,1,142.934-2384a143.3,143.3,0,0,1,27.87,2.743,143.381,143.381,0,0,1,26.651,8.059,143.167,143.167,0,0,1,24.657,13.121A143.1,143.1,0,0,1,244-2342.151l12,12,12-12a143.089,143.089,0,0,1,21.887-17.926,143.2,143.2,0,0,1,24.658-13.121,143.412,143.412,0,0,1,26.652-8.06A143.271,143.271,0,0,1,369.066-2384a143.559,143.559,0,0,1,23.533,1.949A142.394,142.394,0,0,1,440.323-2365a142.618,142.618,0,0,1,37.814,31.547,142.622,142.622,0,0,1,24.9,42.5,142.457,142.457,0,0,1,8.967,49.9v5.8a150.228,150.228,0,0,1-3.163,30.637,150.1,150.1,0,0,1-9.237,29.063,149.785,149.785,0,0,1-14.938,26.587A149.4,149.4,0,0,1,464.4-2125.75l-180.7,168.7a40.322,40.322,0,0,1-12.8,8.075A40.516,40.516,0,0,1,256-1946.151Zm-95.843-404.5A121.753,121.753,0,0,0,140.209-2349,120.793,120.793,0,0,0,39-2229.477v4.917a127.2,127.2,0,0,0,40.349,92.82l153.173,143A34.293,34.293,0,0,0,256-1979.5a34.294,34.294,0,0,0,23.481-9.24l153.173-143A127.2,127.2,0,0,0,473-2224.561v-4.917A120.793,120.793,0,0,0,371.791-2349a121.712,121.712,0,0,0-19.947-1.652,120.639,120.639,0,0,0-46.216,9.157,120.459,120.459,0,0,0-39.455,26.317L256-2305l-10.172-10.172a120.471,120.471,0,0,0-39.455-26.318A120.622,120.622,0,0,0,160.156-2350.65Z" transform="translate(0 2384)" fill="#fdfefe"/>
</svg>
